Coordinates
version=1
nRows=19
nColumns=24
inDegrees=yes

Units are S.I. units (second, meters, Newtons, ...)
Angles are in degrees.

endheader
time	pelvis_tilt	pelvis_list	pelvis_rotation	pelvis_tx	pelvis_ty	pelvis_tz	hip_flexion_r	hip_adduction_r	hip_rotation_r	knee_angle_r	ankle_angle_r	subtalar_angle_r	mtp_angle_r	hip_flexion_l	hip_adduction_l	hip_rotation_l	knee_angle_l	ankle_angle_l	subtalar_angle_l	mtp_angle_l	lumbar_extension	lumbar_bending	lumbar_rotation
      3.84000000	     -8.33247423	     -7.74872876	      5.83984100	     -0.12763599	     -0.03943958	      0.69320144	     30.30256082	      5.15381161	     -2.12419711	    -34.70275877	      4.05743987	     -1.72824603	     16.33347608	     16.16760909	     -6.25045151	      3.11228265	    -65.04881033	    -28.06657244	      8.60622616	     39.95202482	      8.37421677	     15.12150819	     -8.81921476
      3.84500000	     -8.26538144	     -7.81005150	      5.66552299	     -0.11988316	     -0.03808892	      0.69349838	     29.49194077	      5.39063830	     -2.00672075	    -34.26851871	      4.41253476	     -1.64194563	     16.26048231	     17.25776550	     -6.31232514	      2.81425232	    -66.26695093	    -27.10742125	      8.57965209	     40.34515172	      8.27536680	     15.23668556	     -8.41504572
      3.85000000	     -8.18869319	     -7.86829490	      5.49054601	     -0.11223472	     -0.03673501	      0.69383784	     28.67256360	      5.62271024	     -1.90277303	    -33.82498046	      4.73094264	     -1.58076985	     16.17266461	     18.34552192	     -6.39614859	      2.49747720	    -67.41238072	    -26.30508766	      8.33767374	     40.54153243	      8.15182801	     15.33753061	     -8.05948970
      3.85500000	     -8.18039498	     -7.94234974	      5.27199420	     -0.10448536	     -0.03541675	      0.69433114	     27.89063987	      5.93081072	     -1.64297440	    -33.33211612	      4.98244885	     -1.80739527	     15.63530889	     19.49372982	     -6.52446794	      2.13238041	    -68.51626520	    -25.41727915	      7.92146292	     39.86913016	      8.12235946	     15.43613535	     -7.67698896
      3.86000000	     -8.09571481	     -7.96683843	      5.11995232	     -0.09677728	     -0.03398837	      0.69457650	     27.00404637	      6.11775221	     -1.49648727	    -32.81192808	      5.31852879	     -1.75299703	     15.28494894	     20.54723517	     -6.57482763	      1.79364168	    -69.50034725	    -24.77115435	      7.12299710	     39.03608377	      8.01715135	     15.49551743	     -7.35407701
      3.86500000	     -8.03540481	     -7.99582543	      4.92892499	     -0.08900780	     -0.03259962	      0.69486973	     26.12072352	      6.32480582	     -1.28515803	    -32.26052822	      5.65883975	     -1.67684498	     14.86906309	     21.59946003	     -6.64694031	      1.44834550	    -70.42073514	    -23.96663881	      6.44354579	     37.67258262	      7.94447116	     15.55949617	     -6.99982749
      3.87000000	     -7.97039995	     -8.01757987	      4.76720376	     -0.08130578	     -0.03115867	      0.69521166	     25.21764995	      6.52863169	     -1.07708339	    -31.65100142	      5.80391470	     -1.91291340	     14.64097636	     22.63037340	     -6.71816116	      1.12424393	    -71.16372541	    -23.61914444	      5.39096017	     37.11290634	      7.86339646	     15.59796850	     -6.69957055
      3.87500000	     -7.89664026	     -8.00572402	      4.53677240	     -0.07349860	     -0.02974005	      0.69551158	     24.27983046	      6.70758241	     -0.77238122	    -31.03706641	      6.09771594	     -1.86844965	     14.20155615	     23.61223373	     -6.78249506	      0.70078508	    -71.89152641	    -22.83890790	      4.48030792	     35.16107968	      7.77225881	     15.62371890	     -6.32904163
      3.88000000	     -7.83086987	     -7.98959117	      4.33244168	     -0.06575900	     -0.02834037	      0.69584083	     23.34628578	      6.87821954	     -0.46701837	    -30.39722736	      6.29667925	     -1.99649146	     13.78836913	     24.58684681	     -6.83943057	      0.32500115	    -72.47971725	    -22.27589929	      3.47981654	     33.78056506	      7.68213812	     15.63002294	     -5.99966999
      3.88500000	     -7.75500736	     -7.95218025	      4.12245952	     -0.05807253	     -0.02697668	      0.69618104	     22.40142246	      7.02479136	     -0.14338025	    -29.75510120	      6.49580056	     -2.12979036	     13.37016379	     25.52872841	     -6.88578814	     -0.05581073	    -72.97698956	    -21.67610898	      2.54570534	     32.34671890	      7.56392455	     15.61260806	     -5.66708104
      3.89000000	     -7.69467960	     -7.86432573	      3.92348286	     -0.05036872	     -0.02560255	      0.69655775	     21.45280051	      7.12552943	      0.25712329	    -29.08151592	      6.62012153	     -2.40106681	     13.02346045	     26.44560153	     -6.87249690	     -0.40378457	    -73.32646843	    -21.22848356	      1.66493257	     31.31481096	      7.46975034	     15.52693142	     -5.37282448
      3.89500000	     -7.60734149	     -7.80055148	      3.68419216	     -0.04269783	     -0.02432821	      0.69689705	     20.48844093	      7.23349574	      0.60195082	    -28.43129541	      6.83116933	     -2.47369035	     12.60796153	     27.31337924	     -6.91636618	     -0.79297947	    -73.64314604	    -20.48762185	      0.97556938	     29.79274194	      7.32311369	     15.48530337	     -5.00868717
      3.90000000	     -7.56633946	     -7.68715908	      3.46146250	     -0.03501929	     -0.02307926	      0.69731441	     19.56221255	      7.29044482	      0.97091677	    -27.75170508	      6.90584388	     -2.77487459	     12.34171192	     28.18393099	     -6.90669233	     -1.14193499	    -73.78050639	    -20.05542128	      0.29645461	     29.24005230	      7.23345253	     15.36777741	     -4.71397433
      3.90500000	     -7.50531972	     -7.57436156	      3.21617442	     -0.02739763	     -0.02183790	      0.69769750	     18.60520644	      7.34760259	      1.43822663	    -27.05191238	      6.96914424	     -2.98710366	     12.07299517	     29.00976646	     -6.90027912	     -1.46723027	    -73.83305384	    -19.62516801	     -0.22201382	     28.67468359	      7.09847799	     15.26503030	     -4.33480494
      3.91000000	     -7.42900256	     -7.37821484	      2.95410830	     -0.01978244	     -0.02063657	      0.69814190	     17.63688160	      7.31819191	      1.92612369	    -26.37806613	      7.08890066	     -3.21867927	     11.71614598	     29.76704384	     -6.82698544	     -1.82483064	    -73.79011153	    -19.03949141	     -0.50558838	     27.94247718	      6.93478427	     15.06078938	     -3.97257419
      3.91500000	     -7.35274739	     -7.22881699	      2.71924312	     -0.01218674	     -0.01959293	      0.69850993	     16.68535220	      7.30152117	      2.30326964	    -25.72561302	      7.28571319	     -3.32526260	     11.26679517	     30.52320870	     -6.79873189	     -2.14471133	    -73.70251224	    -18.34296013	     -0.72031621	     27.11197756	      6.77784685	     14.90614147	     -3.67925303
      3.92000000	     -7.31245069	     -7.06126106	      2.49463839	     -0.00462041	     -0.01859360	      0.69884392	     15.76575428	      7.25071523	      2.72065979	    -25.05234929	      7.42738079	     -3.42307433	     10.89225510	     31.29638073	     -6.72835567	     -2.39621772	    -73.50245409	    -17.81484162	     -0.82254520	     26.61138189	      6.65652565	     14.72959870	     -3.37307929
      3.92500000	     -7.28640234	     -6.85412469	      2.27760801	      0.00289568	     -0.01772618	      0.69920265	     14.88579129	      7.14689017	      3.09030374	    -24.41318263	      7.55980001	     -3.60397146	     10.64260597	     32.05212125	     -6.61808778	     -2.63600667	    -73.20262390	    -17.29314229	     -0.86263577	     26.39787814	      6.54047147	     14.49685383	     -3.08003125
      3.93000000	     -7.25922492	     -6.64195846	      2.06087303	      0.01040741	     -0.01689877	      0.69954803	     14.00379840	      7.02682364	      3.46728882	    -23.76522150	      7.64989640	     -3.77145493	     10.41407397	     32.78160776	     -6.50009344	     -2.84550943	    -72.81323659	    -16.81389266	     -0.82112130	     26.20077215	      6.42156648	     14.25850097	     -2.78177536
